/* XPM */
static char * apple_xpm[] = {
"14 14 123 2",
"  	c #4C4C4C",
". 	c #545454",
"+ 	c #858584",
"@ 	c #939492",
"# 	c #575756",
"$ 	c #8B8B8A",
"% 	c #DCDCD9",
"& 	c #979895",
"* 	c #4F4F4E",
"= 	c #4E4E4E",
"- 	c #4D4D4D",
"; 	c #4B4B4B",
"> 	c #AEAEAA",
", 	c #A0A09C",
"' 	c #626262",
") 	c #555555",
"! 	c #808080",
"~ 	c #A2A2A2",
"{ 	c #A0A0A0",
"] 	c #939390",
"^ 	c #9A9A98",
"/ 	c #A1A2A1",
"( 	c #969694",
"_ 	c #6C6C6B",
": 	c #525252",
"< 	c #919191",
"[ 	c #DEDFDE",
"} 	c #F6F7F6",
"| 	c #F6F6F6",
"1 	c #DEDFDD",
"2 	c #D3D4D2",
"3 	c #E1E1DF",
"4 	c #E8E8E4",
"5 	c #DEDED9",
"6 	c #B6B6B2",
"7 	c #595959",
"8 	c #646464",
"9 	c #DFE0DF",
"0 	c #F7F8F7",
"a 	c #F8F8F8",
"b 	c #F3F4F2",
"c 	c #EBEBE8",
"d 	c #E7E7E2",
"e 	c #E0E1DA",
"f 	c #D9D9D2",
"g 	c #90918D",
"h 	c #898989",
"i 	c #EFF0EF",
"j 	c #F4F5F4",
"k 	c #EEEFEC",
"l 	c #ECECE8",
"m 	c #E1E2DB",
"n 	c #DBDBD4",
"o 	c #B8B8B3",
"p 	c #656564",
"q 	c #9A9B99",
"r 	c #EDEEEC",
"s 	c #F1F2EF",
"t 	c #E9EAE6",
"u 	c #EAEBE7",
"v 	c #E2E2DD",
"w 	c #DADAD3",
"x 	c #D4D3CB",
"y 	c #AEAEA9",
"z 	c #616160",
"A 	c #8E8E8D",
"B 	c #EAEBE9",
"C 	c #E2E3DE",
"D 	c #E9E9E5",
"E 	c #E4E4DF",
"F 	c #DCDBD5",
"G 	c #D4D2CB",
"H 	c #CECBC3",
"I 	c #BEBBB6",
"J 	c #6E6E6D",
"K 	c #717170",
"L 	c #DADBD7",
"M 	c #D6D6D0",
"N 	c #E3E4DE",
"O 	c #E2E3DD",
"P 	c #DDDDD6",
"Q 	c #D5D4CC",
"R 	c #CECCC4",
"S 	c #C9C6BE",
"T 	c #CAC7C0",
"U 	c #9C9B97",
"V 	c #5E5E5E",
"W 	c #585857",
"X 	c #D6D7D0",
"Y 	c #DEDFD8",
"Z 	c #DCDCD5",
"` 	c #D7D6CE",
" .	c #D0CFC7",
"..	c #CCC9C0",
"+.	c #C8C5BD",
"@.	c #C5C2BA",
"#.	c #C6C3BB",
"$.	c #767574",
"%.	c #4F4F4F",
"&.	c #80807C",
"*.	c #D4D4CD",
"=.	c #D7D7CF",
"-.	c #D0CEC6",
";.	c #CCCAC2",
">.	c #C4C0B7",
",.	c #BAB7B1",
"'.	c #636362",
").	c #5D5D5D",
"!.	c #A7A7A3",
"~.	c #D5D5CE",
"{.	c #D6D5CE",
"].	c #D3D2CA",
"^.	c #CAC7BF",
"/.	c #888784",
"(.	c #515151",
"_.	c #646463",
":.	c #A4A3A0",
"<.	c #BCBCB8",
"[.	c #92928E",
"}.	c #797977",
"|.	c #989793",
"1.	c #B8B7B3",
"2.	c #8F8F8D",
"              . + @ #       ",
"              $ % & *       ",
"        = - ; > , ' =       ",
"    ) ! ~ { ! ] ^ / ( _ *   ",
"  : < [ } | 1 2 3 4 5 6 7   ",
"  8 9 } 0 a b c d e f g :   ",
"  h i j } k l 4 m n o p     ",
"  q r s 4 t u v w x y z     ",
"  A B C C D E F G H I J -   ",
"  K L M N O P Q R S T U V   ",
"  W > X Y Z `  ...+.@.#.$.  ",
"  %.&.*.f =.x -.;.+.>.,.'.  ",
"    ).!.~.{.Q ].-.^.#./.(.  ",
"    - _.:.<.[.}.|.1.2.W     "};
