/* XPM */
static char * dot_xpm[] = {
"14 14 30 1",
" 	c #4C4C4C",
".	c #4C4D4C",
"+	c #4C514B",
"@	c #4C564B",
"#	c #4C584A",
"$	c #4C544B",
"%	c #4C4F4B",
"&	c #4C574A",
"*	c #4D7A45",
"=	c #4E9442",
"-	c #4E9F40",
";	c #4D8A43",
">	c #4D6A48",
",	c #4FB43D",
"'	c #4FC63B",
")	c #4FCA3A",
"!	c #4FC03C",
"~	c #4E9D41",
"{	c #4C6349",
"]	c #4FCC3A",
"^	c #4FB63D",
"/	c #4D7446",
"(	c #4FBE3C",
"_	c #4D7B45",
":	c #4FC83B",
"<	c #4EAD3E",
"[	c #4D6C47",
"}	c #4D8744",
"|	c #4C594A",
"1	c #4D6C48",
"              ",
"              ",
"              ",
"    .+@#$%    ",
"   .&*=-;>%   ",
"   +*,')!~{   ",
"   @=']])^/   ",
"   #-)]]](_   ",
"   $;!)]:<[   ",
"   %>~^(<}|   ",
"    %{/_1|    ",
"              ",
"              ",
"              "};
