/* XPM */
static char * tux_xpm[] = {
"14 14 116 2",
"  	c #4C4C4C",
". 	c #4B4B4B",
"+ 	c #696969",
"@ 	c #999999",
"# 	c #9D9D9D",
"$ 	c #717171",
"% 	c #4E4E4E",
"& 	c #404040",
"* 	c #5F5F5F",
"= 	c #AAAAAA",
"- 	c #BBBBBB",
"; 	c #C2C2C2",
"> 	c #B3B3B3",
", 	c #727272",
"' 	c #434343",
") 	c #474747",
"! 	c #2A2A2A",
"~ 	c #585858",
"{ 	c #A1A1A1",
"] 	c #8B8B8B",
"^ 	c #7E7E7E",
"/ 	c #8C8C8C",
"( 	c #636363",
"_ 	c #353535",
": 	c #3E3E3E",
"< 	c #171717",
"[ 	c #6F6F6F",
"} 	c #D6D6D6",
"| 	c #595959",
"1 	c #A9A9A9",
"2 	c #656565",
"3 	c #1E1E1E",
"4 	c #3A3A3A",
"5 	c #121212",
"6 	c #7D7D7D",
"7 	c #D1D1D0",
"8 	c #827D6F",
"9 	c #757164",
"0 	c #C9C9C8",
"a 	c #747474",
"b 	c #131313",
"c 	c #323232",
"d 	c #060606",
"e 	c #505050",
"f 	c #B2A98D",
"g 	c #CEB847",
"h 	c #D2C989",
"i 	c #A9A493",
"j 	c #494949",
"k 	c #292929",
"l 	c #242424",
"m 	c #C1C0BB",
"n 	c #CBB866",
"o 	c #CBB756",
"p 	c #CFCECA",
"q 	c #A0A0A0",
"r 	c #4F4F4F",
"s 	c #454545",
"t 	c #0E0E0E",
"u 	c #707070",
"v 	c #E3E3E3",
"w 	c #E9E9E9",
"x 	c #CDCDCC",
"y 	c #CCCCCC",
"z 	c #EAEAEA",
"A 	c #E5E5E5",
"B 	c #444444",
"C 	c #2F2F2F",
"D 	c #909090",
"E 	c #929292",
"F 	c #9A9A9A",
"G 	c #D8D8D8",
"H 	c #9B9B9B",
"I 	c #4A4A4A",
"J 	c #545454",
"K 	c #9A9998",
"L 	c #C7C6C5",
"M 	c #C9C9C9",
"N 	c #C7C7C5",
"O 	c #9A9A99",
"P 	c #514F49",
"Q 	c #7B7350",
"R 	c #BEB484",
"S 	c #CFC289",
"T 	c #BEAF6E",
"U 	c #B3AFA2",
"V 	c #B1ADA1",
"W 	c #BCAC67",
"X 	c #CCBE77",
"Y 	c #C0B78E",
"Z 	c #7D775E",
"` 	c #51504B",
" .	c #666040",
"..	c #C5B03B",
"+.	c #E3D476",
"@.	c #DECF70",
"#.	c #CAB129",
"$.	c #A38F47",
"%.	c #A28E44",
"&.	c #C8AE1C",
"*.	c #DCCA5B",
"=.	c #E3D57A",
"-.	c #C8B654",
";.	c #676248",
">.	c #5A553E",
",.	c #957F21",
"'.	c #A08B2D",
").	c #9B852B",
"!.	c #947A18",
"~.	c #6B5A2A",
"{.	c #6B5B29",
"].	c #947A15",
"^.	c #9A8426",
"/.	c #A08B2F",
"(.	c #957F27",
"_.	c #5A5540",
"      . . + @ # $ % .       ",
"      & * = - ; > , '       ",
"    ) ! ~ { ] ^ / ( _ )     ",
"    : < [ } ] | 1 2 3 :     ",
"    4 5 6 7 8 9 0 a b 4     ",
"  . c d e f g h i & d c .   ",
"  j k l # m n o p q l k j   ",
"r s t u v w x y z A $ t B % ",
"e C k D v v v v v v E k C r ",
"j s & F G G G G G G H & s j ",
"  I J K L M y y M N O J I   ",
"  P Q R S T U V W X Y Z `   ",
"   ...+.@.#.$.%.&.*.=.-.;.  ",
"  >.,.'.).!.~.{.].^./.(._.  "};
