/* XPM */
static char * win_xpm[] = {
"14 14 173 2",
"  	c #4C4C4C",
". 	c #514A4A",
"+ 	c #674742",
"@ 	c #814337",
"# 	c #8C4231",
"$ 	c #804A3A",
"% 	c #5C4C47",
"& 	c #4E4C4C",
"* 	c #4D4C4B",
"= 	c #763D36",
"- 	c #BF240E",
"; 	c #CE2907",
"> 	c #D33508",
", 	c #D63D0A",
"' 	c #BC4C21",
") 	c #5E5447",
"! 	c #515649",
"~ 	c #4D4D4C",
"{ 	c #4B4D4A",
"] 	c #554A48",
"^ 	c #923A28",
"/ 	c #D23408",
"( 	c #DC4C0B",
"_ 	c #E0610E",
": 	c #E26A0E",
"< 	c #C7641F",
"[ 	c #6B7542",
"} 	c #6B8934",
"| 	c #586B3C",
"1 	c #4E5E3E",
"2 	c #46583B",
"3 	c #3E5935",
"4 	c #604843",
"5 	c #B23F1C",
"6 	c #DD510C",
"7 	c #E4740F",
"8 	c #E68E11",
"9 	c #E89A11",
"0 	c #AC7A33",
"a 	c #839E47",
"b 	c #89B62D",
"c 	c #73A222",
"d 	c #598920",
"e 	c #40731C",
"f 	c #366721",
"g 	c #4D4C4C",
"h 	c #6E483C",
"i 	c #CF4811",
"j 	c #E26B0F",
"k 	c #E79212",
"l 	c #EAAF13",
"m 	c #ECBB14",
"n 	c #8D7B49",
"o 	c #A3C259",
"p 	c #9DC445",
"q 	c #86B52B",
"r 	c #699D1B",
"s 	c #4B8119",
"t 	c #3E6229",
"u 	c #4F4C4B",
"v 	c #794838",
"w 	c #A64925",
"x 	c #955C37",
"y 	c #97693A",
"z 	c #B5822D",
"A 	c #DBA921",
"B 	c #81865D",
"C 	c #BBD76B",
"D 	c #ABCE57",
"E 	c #94BE39",
"F 	c #76A81F",
"G 	c #568B1A",
"H 	c #425634",
"I 	c #4B4D4F",
"J 	c #485A6C",
"K 	c #547895",
"L 	c #739CB6",
"M 	c #93B4C3",
"N 	c #97A6A6",
"O 	c #7D7362",
"P 	c #85965F",
"Q 	c #C2DC74",
"R 	c #B2D25F",
"S 	c #9BC341",
"T 	c #7DAD23",
"U 	c #5D8D20",
"V 	c #47503F",
"W 	c #4A5159",
"X 	c #3A71A3",
"Y 	c #4A8BB7",
"Z 	c #73A8C8",
"` 	c #9CC4DA",
" .	c #BAD8E5",
"..	c #889293",
"+.	c #8D8764",
"@.	c #7E8B5B",
"#.	c #91A759",
"$.	c #87A145",
"%.	c #718635",
"&.	c #57603B",
"*.	c #4C4D4A",
"=.	c #47576A",
"-.	c #326DA6",
";.	c #4284B3",
">.	c #649FC3",
",.	c #8BB8D2",
"'.	c #A4C5D6",
").	c #918E75",
"!.	c #F1E38F",
"~.	c #D6C470",
"{.	c #BBA653",
"].	c #BC9F3C",
"^.	c #CD9A23",
"/.	c #886C35",
"(.	c #504E4A",
"_.	c #3F5A80",
":.	c #2D63A0",
"<.	c #3879AC",
"[.	c #4F8FB9",
"}.	c #6EA5C7",
"|.	c #7EA0B4",
"1.	c #AFA368",
"2.	c #F5DF72",
"3.	c #F6DC5E",
"4.	c #F8D73F",
"5.	c #F9CA20",
"6.	c #E5A715",
"7.	c #75633C",
"8.	c #35598E",
"9.	c #2B578E",
"0.	c #326491",
"a.	c #3A76A2",
"b.	c #4D8CB6",
"c.	c #667F8C",
"d.	c #D2B94D",
"e.	c #F9D844",
"f.	c #F9D435",
"g.	c #FACB21",
"h.	c #F9B612",
"i.	c #C68B1B",
"j.	c #635741",
"k.	c #3C4E66",
"l.	c #3D4C5C",
"m.	c #41505D",
"n.	c #425666",
"o.	c #43657E",
"p.	c #6F715E",
"q.	c #E8BC27",
"r.	c #FAC81D",
"s.	c #F9C017",
"t.	c #F8B10F",
"u.	c #F39B0A",
"v.	c #A27025",
"w.	c #565046",
"x.	c #4A4B4C",
"y.	c #4B4B4B",
"z.	c #4A4E51",
"A.	c #5F5949",
"B.	c #B18727",
"C.	c #EBA310",
"D.	c #F39E0B",
"E.	c #EA910A",
"F.	c #CA7C12",
"G.	c #755832",
"H.	c #4B4A47",
"I.	c #4D4D4B",
"J.	c #565148",
"K.	c #655841",
"L.	c #705B3A",
"M.	c #68553B",
"N.	c #594F41",
"O.	c #4F4C48",
"P.	c #4C4C4B",
"    . + @ # $ % &           ",
"  * = - ; > , ' ) ! ~     { ",
"  ] ^ / ( _ : < [ } | 1 2 3 ",
"  4 5 6 7 8 9 0 a b c d e f ",
"g h i j k l m n o p q r s t ",
"u v w x y z A B C D E F G H ",
"I J K L M N O P Q R S T U V ",
"W X Y Z `  ...+.@.#.$.%.&.*.",
"=.-.;.>.,.'.).!.~.{.].^./.(.",
"_.:.<.[.}.|.1.2.3.4.5.6.7.~ ",
"8.9.0.a.b.c.d.e.f.g.h.i.j.  ",
"k.l.m.n.o.p.q.r.s.t.u.v.w.  ",
"x.y.    z.A.B.C.D.E.F.G.H.  ",
"          I.J.K.L.M.N.O.P.  "};
